<svg xmlns="http://www.w3.org/2000/svg" viewBox="0 0 1453.73 210.28"><defs><style>.a{fill:#5bd5ff;}.b{fill:#ff5f7f;}.c{fill:#f3e64d;}.d{fill:#191919;}.e{fill:#fff;}</style></defs><path class="a" d="M105.14,104.78h96.38v96.38H105.14Z"/><path class="b" d="M8.76,111.78h96.38v96.38H8.76Z"/><path class="c" d="M8.76,8.4h96.38v96.38H8.76Z"/><path class="d" d="M113.9,0H0V210.28H210.28V96.38H113.9ZM96.38,192.75H17.52V113.9H96.38Zm96.37-78.85v78.85H113.9V113.9ZM17.52,96.38V17.52H96.38V96.38Z"/><rect class="d" x="61.33" y="35.05" width="17.52" height="26.28"/><rect class="d" x="61.33" y="131.42" width="17.52" height="26.28"/><rect class="d" x="157.71" y="131.42" width="17.52" height="26.28"/><path class="e" d="M289.9,66V89.22h52.76V121.9H289.9v22.35h57.36v35.63H256.62V30.61h90.64V66Z"/><path class="e" d="M363.81,179.88V30.61H396.9v112h53v37.32Z"/><path class="e" d="M495.27,66V89.22H548V121.9H495.27v22.35h57.36v35.63H462V30.61h90.64V66Z"/><path class="e" d="M569.18,179.88V30.61h32.91l27.39,73,27.58-72.95H690V179.88h-33.1l.18-43,2-30.15-1.11-.21-17.1,51.23H618.27L600.8,106.51l-.92.21,2.21,30.15v43Z"/><path class="e" d="M742.93,66V89.22H795.7V121.9H742.93v22.35h57.36v35.63H709.65V30.61h90.64V66Z"/><path class="e" d="M816.84,179.88V30.61H848.1l31.44,63.67,11,29.94.92-.21-1.84-12.86-1.84-12.86V30.61h32.73V179.88H887.26l-29.42-58.82-11.4-29.94-.92.21,4.23,28.88v59.67Z"/><path class="e" d="M1034.9,66.24h-34.57V179.88H967.05V66.24H932.49V30.39H1034.9Z"/><path class="e" d="M1096.86,30.61l46.52,149.27h-35.3l-8.46-29.94h-34.75l-8.09,29.94h-35.3l45.41-149.27Zm-24.64,85.81h19.49l-9-43.65h-.92Z"/><path class="e" d="M1245.6,76.15A33.51,33.51,0,0,1,1242,89.43a24.61,24.61,0,0,1-9.84,11q12,7,16,18.56a46.06,46.06,0,0,1,2.39,22.35q-5.34,38.58-46.33,38.58H1151.1V30.61h52.22q19.11,0,31,12.33T1245.6,76.15ZM1184.19,89h19.13q7.53,0,10.75-6.64a14.71,14.71,0,0,0,.09-13.29q-3.12-6.63-10.84-6.64h-19.13Zm0,57.77h19.13q9.38,0,13.14-7.69a16.29,16.29,0,0,0-.09-15.29q-3.86-7.59-13-7.59h-19.13Z"/><path class="e" d="M1264.91,179.88V30.61H1298v112h53v37.32Z"/><path class="e" d="M1396.37,66V89.22h52.76V121.9h-52.76v22.35h57.36v35.63h-90.64V30.61h90.64V66Z"/></svg>